<svg t="1616550553377" class="icon" viewBox="0 0 1066 1024" version="1.1" xmlns="http://www.w3.org/2000/svg" p-id="8054" width="200" height="200"><path d="M613.744529 840.938801C533.319889 981.308596 329.805019 1069.199714 189.008569 987.921763s-166.395805-300.57909-85.331183-441.375541 238.713982-149.329569 379.510434-68.478273 211.83466 222.074402 130.556709 362.870852z" fill="#FFF5F7" p-id="8055"></path><path d="M92.157677 892.137511a247.460429 247.460429 0 0 0 94.290956 100.050811c143.143058 82.771247 349.431191-6.186511 431.989111-149.329569s10.666398-286.499444-132.689989-369.057363c-77.651376-44.798871-159.995967-62.718419-232.527472-46.718823 0 0 96.637564 141.436435 46.932151 290.12602a255.993547 255.993547 0 0 1-207.994757 174.928924z" fill="#FF3B61" p-id="8056"></path><path d="M378.512742 744.761985m-11.51971 19.952722a23.039419 23.039419 0 1 0 23.03942-39.905445 23.039419 23.039419 0 1 0-23.03942 39.905445Z" fill="#ED0C4C" p-id="8057"></path><path d="M271.978396 871.851064m-7.111923 21.914274a23.039419 23.039419 0 1 0 14.223846-43.828548 23.039419 23.039419 0 1 0-14.223846 43.828548Z" fill="#ED0C4C" p-id="8058"></path><path d="M521.280384 753.782339m-5.759855 9.976361a11.51971 11.51971 0 1 0 11.51971-19.952723 11.51971 11.51971 0 1 0-11.51971 19.952723Z" fill="#ED0C4C" p-id="8059"></path><path d="M410.296438 860.915474m-8.464639 7.81368a11.51971 11.51971 0 1 0 16.929278-15.62736 11.51971 11.51971 0 1 0-16.929278 15.62736Z" fill="#ED0C4C" p-id="8060"></path><path d="M1047.226934 600.944851c50.985381 131.410021 0 315.938702-131.41002 366.710756S622.277647 917.310209 571.292265 785.473533s28.372618-242.553886 159.782639-293.539267S996.241553 469.321503 1047.226934 600.944851z" fill="#FF3B61" p-id="8061"></path><path d="M882.210341 726.016277m-27.448778 10.641168a29.439258 29.439258 0 1 0 54.897557-21.282336 29.439258 29.439258 0 1 0-54.897557 21.282336Z" fill="#ED0C4C" p-id="8062"></path><path d="M756.164669 710.280047m-18.299186 7.094113a19.626172 19.626172 0 1 0 36.598371-14.188225 19.626172 19.626172 0 1 0-36.598371 14.188225Z" fill="#ED0C4C" p-id="8063"></path><path d="M881.391758 846.432636m-16.418728 10.752302a19.626172 19.626172 0 1 0 32.837456-21.504604 19.626172 19.626172 0 1 0-32.837456 21.504604Z" fill="#ED0C4C" p-id="8064"></path><path d="M777.461589 847.682702m-8.21124 5.373285a9.813086 9.813086 0 1 0 16.42248-10.74657 9.813086 9.813086 0 1 0-16.42248 10.74657Z" fill="#ED0C4C" p-id="8065"></path><path d="M936.378833 617.939802m-9.149593 3.547056a9.813086 9.813086 0 1 0 18.299186-7.094112 9.813086 9.813086 0 1 0-18.299186 7.094112Z" fill="#ED0C4C" p-id="8066"></path><path d="M783.946236 804.101044m-9.790362 0.66744a9.813086 9.813086 0 1 0 19.580723-1.33488 9.813086 9.813086 0 1 0-19.580723 1.33488Z" fill="#ED0C4C" p-id="8067"></path><path d="M948.351276 748.896336m-9.790362 0.66744a9.813086 9.813086 0 1 0 19.580723-1.334879 9.813086 9.813086 0 1 0-19.580723 1.334879Z" fill="#ED0C4C" p-id="8068"></path><path d="M681.326553 791.985153m-9.149592 3.547057a9.813086 9.813086 0 1 0 18.299185-7.094113 9.813086 9.813086 0 1 0-18.299185 7.094113Z" fill="#ED0C4C" p-id="8069"></path><path d="M744.727893 510.707126a921.790097 921.790097 0 0 0-56.531908-100.264139c-21.332796-33.279161-47.99879-68.051618-62.931747-87.251134 10.45307-17.279564 21.332796-35.839097 31.999193-55.678597A1710.463549 1710.463549 0 0 0 767.98064 22.612763c1.279968-7.466478-42.665591-15.572941-49.492085-10.666397s-1.706624 10.45307-7.039823 25.599354c-11.093054 32.212521-35.839097 94.504284-77.438048 186.021978a1315.166847 1315.166847 0 0 1-160.849278 273.486439h-1.06664c-13.866317-7.893134-27.945962-9.173102-31.572537-2.773264s4.479887 18.132876 18.132876 26.026011 27.945962 9.173102 31.572537 2.773263-1.279968-13.013005-9.599758-20.052827c24.532715-18.132876 72.104849-65.70501 127.996774-154.44944a841.152129 841.152129 0 0 1 80.424639 95.570924c17.70622 24.319387 34.772457 53.758645 46.078838 70.398225-11.093054 5.119871-18.346204 12.799677-16.212924 18.346204s14.292973 6.613167 27.09265 1.706624 21.332796-13.652989 18.77286-19.626172-9.599758-6.826495-20.052828-4.266559z" fill="#604D42" p-id="8070"></path><path d="M631.450749 275.193063s-46.292166-61.865107-158.715999-58.878516a304.845649 304.845649 0 0 0-188.368585 77.438048s93.864301 55.891924 183.462042 49.705414a250.660348 250.660348 0 0 0 163.622542-68.264946z" fill="#73D36E" p-id="8071"></path><path d="M1023.974187 564.679099c-49.06543-126.29015-181.54209-172.582316-329.805019-115.197096-85.331182 33.065833-145.916322 88.74443-170.662365 156.796047a10.666398 10.666398 0 0 0 20.052828 7.253151c21.332796-62.078435 78.504688-113.277144 158.076015-144.209698 138.449843-53.758645 257.060187-13.226333 302.285713 103.037402a315.085391 315.085391 0 0 1 2.559936 206.288133 225.914305 225.914305 0 0 1-127.996773 146.556306c-119.036999 46.078838-260.473434-39.679-318.071982-149.329569a10.666398 10.666398 0 0 0-18.772861 10.026414 303.992337 303.992337 0 0 0 21.332796 35.625768c-83.411231 123.943542-269.006552 206.501461-405.323116 127.996774-63.998387-37.119064-107.730618-106.663978-122.450246-193.915112a370.550659 370.550659 0 0 1 42.025607-238.713982c66.558322-115.197096 193.701784-147.836273 332.151627-85.331183a10.666398 10.666398 0 1 0 8.746446-19.412844c-149.329569-67.411634-287.139428-31.359209-359.457605 94.077629a386.976912 386.976912 0 0 0-42.665591 253.646939c15.786269 94.290956 63.998387 168.315757 132.903316 208.848069A255.993547 255.993547 0 0 0 277.326342 1002.641392a388.256879 388.256879 0 0 0 300.792418-162.129247C635.717308 908.990419 723.608426 959.975801 810.646232 959.975801a210.554692 210.554692 0 0 0 76.371408-14.079645 246.820445 246.820445 0 0 0 140.369795-159.782639A332.151627 332.151627 0 0 0 1023.974187 564.679099z" fill="#604D42" p-id="8072"></path><path d="M526.493395 639.983867a10.666398 10.666398 0 0 0-11.946366 9.173102 205.008165 205.008165 0 0 0-1.06664 40.532312 10.666398 10.666398 0 0 0 10.666398 9.813086 10.666398 10.666398 0 0 0 9.813086-11.306382 183.035386 183.035386 0 0 1 0-36.265752 10.666398 10.666398 0 0 0-7.466478-11.946366zM523.506803 741.314646l1.493296 4.479887a10.666398 10.666398 0 0 0 10.026414 7.253151h3.413247a10.666398 10.666398 0 0 0 6.826495-13.439662l-1.279968-4.266559a10.666398 10.666398 0 0 0-21.332796 6.399839zM248.953724 277.326342a390.603487 390.603487 0 0 0 174.502268 51.625366h15.146285a259.620122 259.620122 0 0 0 170.662364-71.678193 10.666398 10.666398 0 0 0 0-13.439662c-1.919952-2.773263-51.198709-66.77165-167.462445-63.998386a312.952111 312.952111 0 0 0-195.621735 80.637967 10.666398 10.666398 0 0 0 1.919951 16.852908z m194.12844-75.944752c83.624559-2.559935 127.996773 32.425849 143.569714 47.785462a253.220283 253.220283 0 0 1-149.329569 58.025204 343.458009 343.458009 0 0 1-164.049198-40.958967 294.179251 294.179251 0 0 1 169.809053-64.425043z" fill="#604D42" p-id="8073"></path></svg>